<svg xmlns="http://www.w3.org/2000/svg" xmlns:xlink="http://www.w3.org/1999/xlink" id="Layer_1" x="0" y="0" version="1.1" viewBox="0 0 40 40" xml:space="preserve" style="enable-background:new 0 0 40 40"><style type="text/css">.st0{fill:#fdfdfd}</style><g><path d="M40,40H0V0h40V40z M1.9,38.1h36.2V1.9H1.9V38.1z" class="st0"/></g><g><path d="M33,14.5c0-2.3-1.7-4.2-3.8-4.2c-2.9-0.1-5.8-0.2-8.7-0.2c-0.2,0-0.3,0-0.5,0s-0.3,0-0.5,0 c-3,0-5.9,0.1-8.7,0.2c-2.1,0-3.8,1.9-3.8,4.2c-0.1,1.8-0.2,3.7-0.2,5.5c0,1.8,0.1,3.7,0.2,5.5c0,2.3,1.7,4.2,3.8,4.2 c3,0.1,6.1,0.2,9.2,0.2c3.1,0,6.2-0.1,9.2-0.2c2.1,0,3.8-1.9,3.8-4.2c0.1-1.8,0.2-3.7,0.2-5.5C33.2,18.2,33.1,16.3,33,14.5z M17.5,25V14.9l7.5,5.1L17.5,25z" class="st0"/></g></svg>